<?xml version="1.0" standalone="no"?>
<!DOCTYPE svg PUBLIC "-//W3C//DTD SVG 20010904//EN"
 "http://www.w3.org/TR/2001/REC-SVG-20010904/DTD/svg10.dtd">
<svg version="1.0" xmlns="http://www.w3.org/2000/svg"
 width="920.000000pt" height="400.000000pt" viewBox="0 0 920.000000 400.000000"
 preserveAspectRatio="xMidYMid meet" style="background: white">
<metadata>
Created by potrace 1.13, written by Peter Selinger 2001-2015
</metadata>
<g transform="translate(0.000000,400.000000) scale(0.100000,-0.100000)"
fill="#019C68" stroke="none">
<path d="M0 3980 c0 -20 7 -20 580 -20 573 0 580 0 580 20 0 20 -7 20 -580 20
-573 0 -580 0 -580 -20z"/>
<path d="M2240 3980 c0 -20 7 -20 655 -20 648 0 655 0 655 20 0 20 -7 20 -655
20 -648 0 -655 0 -655 -20z"/>
<path d="M5580 3980 c0 -20 7 -20 655 -20 648 0 655 0 655 20 0 20 -7 20 -655
20 -648 0 -655 0 -655 -20z"/>
<path d="M8060 3980 c0 -20 7 -20 570 -20 563 0 570 0 570 20 0 20 -7 20 -570
20 -563 0 -570 0 -570 -20z"/>
<path d="M0 3850 l0 -50 505 0 505 0 0 50 0 50 -505 0 -505 0 0 -50z"/>
<path d="M2090 3850 l0 -50 655 0 655 0 0 50 0 50 -655 0 -655 0 0 -50z"/>
<path d="M5730 3850 l0 -50 655 0 655 0 0 50 0 50 -655 0 -655 0 0 -50z"/>
<path d="M8210 3850 l0 -50 495 0 495 0 0 50 0 50 -495 0 -495 0 0 -50z"/>
<path d="M0 3685 l0 -55 430 0 430 0 0 55 0 55 -430 0 -430 0 0 -55z"/>
<path d="M1940 3685 l0 -55 653 2 652 3 3 53 3 52 -655 0 -656 0 0 -55z"/>
<path d="M4410 3685 l0 -55 175 0 175 0 0 55 0 55 -175 0 -175 0 0 -55z"/>
<path d="M5880 3685 l0 -55 653 2 652 3 3 53 3 52 -655 0 -656 0 0 -55z"/>
<path d="M8360 3685 l0 -55 420 0 420 0 0 55 0 55 -420 0 -420 0 0 -55z"/>
<path d="M0 3525 l0 -55 355 0 355 0 0 55 0 55 -355 0 -355 0 0 -55z"/>
<path d="M1790 3525 l0 -55 656 0 655 0 -3 53 -3 52 -652 3 -653 2 0 -55z"/>
<path d="M4240 3525 l0 -55 341 0 340 0 -3 53 -3 52 -337 3 -338 2 0 -55z"/>
<path d="M6030 3525 l0 -55 655 0 655 0 0 55 0 55 -655 0 -655 0 0 -55z"/>
<path d="M8510 3525 l0 -55 345 0 345 0 0 55 0 55 -345 0 -345 0 0 -55z"/>
<path d="M0 3360 l0 -50 280 0 280 0 0 50 0 50 -280 0 -280 0 0 -50z"/>
<path d="M1640 3360 l0 -50 655 0 655 0 0 50 0 50 -655 0 -655 0 0 -50z"/>
<path d="M4080 3360 l0 -50 495 0 495 0 0 50 0 50 -495 0 -495 0 0 -50z"/>
<path d="M6180 3360 l0 -50 655 0 655 0 0 50 0 50 -655 0 -655 0 0 -50z"/>
<path d="M8660 3360 l0 -50 270 0 270 0 0 50 0 50 -270 0 -270 0 0 -50z"/>
<path d="M0 3200 l0 -50 205 0 205 0 0 50 0 50 -205 0 -205 0 0 -50z"/>
<path d="M1490 3200 l0 -50 650 0 650 0 0 50 0 50 -650 0 -650 0 0 -50z"/>
<path d="M3910 3200 l0 -50 655 0 655 0 0 50 0 50 -655 0 -655 0 0 -50z"/>
<path d="M6330 3200 l0 -50 655 0 655 0 0 50 0 50 -655 0 -655 0 0 -50z"/>
<path d="M8810 3200 l0 -50 195 0 195 0 0 50 0 50 -195 0 -195 0 0 -50z"/>
<path d="M0 3035 l0 -55 130 0 130 0 0 55 0 55 -130 0 -130 0 0 -55z"/>
<path d="M1340 3035 l0 -55 650 0 650 0 0 55 0 55 -650 0 -650 0 0 -55z"/>
<path d="M3760 3035 l0 -55 805 0 805 0 0 55 0 55 -805 0 -805 0 0 -55z"/>
<path d="M6482 3038 l3 -53 653 -3 652 -2 0 55 0 55 -656 0 -655 0 3 -52z"/>
<path d="M8960 3035 l0 -55 120 0 120 0 0 55 0 55 -120 0 -120 0 0 -55z"/>
<path d="M1190 2875 l0 -55 650 0 650 0 0 55 0 55 -650 0 -650 0 0 -55z"/>
<path d="M3610 2875 l0 -55 955 0 955 0 0 55 0 55 -955 0 -955 0 0 -55z"/>
<path d="M6637 2923 c-4 -3 -7 -28 -7 -55 l0 -48 655 0 655 0 0 55 0 55 -648
0 c-357 0 -652 -3 -655 -7z"/>
<path d="M1037 2753 c-4 -3 -7 -26 -7 -50 l0 -43 655 0 655 0 0 50 0 50 -648
0 c-357 0 -652 -3 -655 -7z"/>
<path d="M3460 2710 l0 -50 1105 0 1105 0 0 50 0 50 -1105 0 -1105 0 0 -50z"/>
<path d="M6780 2710 l0 -50 655 0 655 0 0 50 0 50 -655 0 -655 0 0 -50z"/>
<path d="M882 2548 l3 -53 653 -3 652 -2 0 55 0 55 -656 0 -655 0 3 -52z"/>
<path d="M3310 2545 l0 -55 1255 0 1255 0 0 55 0 55 -1255 0 -1255 0 0 -55z"/>
<path d="M6940 2545 l0 -55 650 0 650 0 0 55 0 55 -650 0 -650 0 0 -55z"/>
<path d="M734 2426 c-3 -8 -4 -31 -2 -52 l3 -39 653 -3 652 -2 0 55 0 55 -650
0 c-547 0 -651 -2 -656 -14z"/>
<path d="M3160 2385 l0 -55 650 0 650 0 0 55 0 55 -650 0 -650 0 0 -55z"/>
<path d="M4667 2433 c-4 -3 -7 -28 -7 -55 l0 -48 655 0 655 0 0 55 0 55 -648
0 c-357 0 -652 -3 -655 -7z"/>
<path d="M7090 2385 l0 -55 650 0 650 0 0 55 0 55 -650 0 -650 0 0 -55z"/>
<path d="M580 2220 l0 -50 655 0 655 0 0 50 0 50 -655 0 -655 0 0 -50z"/>
<path d="M3000 2220 l0 -50 655 0 655 0 0 50 0 50 -655 0 -655 0 0 -50z"/>
<path d="M4810 2220 l0 -50 655 0 655 0 0 50 0 50 -655 0 -655 0 0 -50z"/>
<path d="M7240 2220 l0 -50 650 0 650 0 0 50 0 50 -650 0 -650 0 0 -50z"/>
<path d="M430 2055 l0 -55 655 0 655 0 0 55 0 55 -655 0 -655 0 0 -55z"/>
<path d="M2854 2096 c-3 -8 -4 -31 -2 -52 l3 -39 653 -3 652 -2 0 55 0 55
-650 0 c-547 0 -651 -2 -656 -14z"/>
<path d="M4970 2055 l0 -55 650 0 650 0 0 55 0 55 -650 0 -650 0 0 -55z"/>
<path d="M7390 2055 l0 -55 653 2 652 3 3 53 3 52 -655 0 -656 0 0 -55z"/>
<path d="M280 1895 l0 -55 656 0 655 0 -3 53 -3 52 -652 3 -653 2 0 -55z"/>
<path d="M2707 1943 c-4 -3 -7 -28 -7 -55 l0 -48 655 0 655 0 0 55 0 55 -648
0 c-357 0 -652 -3 -655 -7z"/>
<path d="M5120 1895 l0 -55 650 0 650 0 0 55 0 55 -650 0 -650 0 0 -55z"/>
<path d="M7540 1895 l0 -55 656 0 655 0 -3 53 -3 52 -652 3 -653 2 0 -55z"/>
<path d="M430 1730 l0 -50 655 0 655 0 0 50 0 50 -655 0 -655 0 0 -50z"/>
<path d="M2850 1730 l0 -50 655 0 655 0 0 50 0 50 -655 0 -655 0 0 -50z"/>
<path d="M4970 1730 l0 -50 650 0 650 0 0 50 0 50 -650 0 -650 0 0 -50z"/>
<path d="M7390 1730 l0 -50 655 0 655 0 0 50 0 50 -655 0 -655 0 0 -50z"/>
<path d="M580 1570 l0 -50 655 0 655 0 0 50 0 50 -655 0 -655 0 0 -50z"/>
<path d="M3000 1570 l0 -50 655 0 655 0 0 50 0 50 -655 0 -655 0 0 -50z"/>
<path d="M4810 1570 l0 -50 655 0 655 0 0 50 0 50 -655 0 -655 0 0 -50z"/>
<path d="M7240 1570 l0 -50 650 0 650 0 0 50 0 50 -650 0 -650 0 0 -50z"/>
<path d="M732 1408 l3 -53 653 -3 652 -2 0 55 0 55 -656 0 -655 0 3 -52z"/>
<path d="M3160 1405 l0 -55 650 0 650 0 0 55 0 55 -650 0 -650 0 0 -55z"/>
<path d="M4662 1408 l3 -53 653 -2 652 -3 0 55 0 55 -656 0 -655 0 3 -52z"/>
<path d="M7090 1405 l0 -55 650 0 650 0 0 55 0 55 -650 0 -650 0 0 -55z"/>
<path d="M887 1293 c-4 -3 -7 -28 -7 -55 l0 -48 655 0 655 0 0 55 0 55 -648 0
c-357 0 -652 -3 -655 -7z"/>
<path d="M3310 1245 l0 -55 1255 0 1255 0 0 55 0 55 -1255 0 -1255 0 0 -55z"/>
<path d="M6940 1245 l0 -55 650 0 650 0 0 55 0 55 -650 0 -650 0 0 -55z"/>
<path d="M1030 1080 l0 -50 655 0 655 0 0 50 0 50 -655 0 -655 0 0 -50z"/>
<path d="M3460 1080 l0 -50 1105 0 1105 0 0 50 0 50 -1105 0 -1105 0 0 -50z"/>
<path d="M6780 1080 l0 -50 655 0 655 0 0 50 0 50 -655 0 -655 0 0 -50z"/>
<path d="M1190 915 l0 -55 650 0 650 0 0 55 0 55 -650 0 -650 0 0 -55z"/>
<path d="M3610 915 l0 -55 955 0 955 0 0 55 0 55 -955 0 -955 0 0 -55z"/>
<path d="M6632 918 l3 -53 653 -3 652 -2 0 55 0 55 -656 0 -655 0 3 -52z"/>
<path d="M0 755 l0 -55 130 0 130 0 0 55 0 55 -130 0 -130 0 0 -55z"/>
<path d="M1340 755 l0 -55 650 0 650 0 0 55 0 55 -650 0 -650 0 0 -55z"/>
<path d="M3760 755 l0 -55 805 0 805 0 0 55 0 55 -805 0 -805 0 0 -55z"/>
<path d="M6487 803 c-4 -3 -7 -28 -7 -55 l0 -48 655 0 655 0 0 55 0 55 -648 0
c-357 0 -652 -3 -655 -7z"/>
<path d="M8960 755 l0 -55 120 0 120 0 0 55 0 55 -120 0 -120 0 0 -55z"/>
<path d="M0 590 l0 -50 205 0 205 0 0 50 0 50 -205 0 -205 0 0 -50z"/>
<path d="M1490 590 l0 -50 650 0 650 0 0 50 0 50 -650 0 -650 0 0 -50z"/>
<path d="M3910 590 l0 -50 655 0 655 0 0 50 0 50 -655 0 -655 0 0 -50z"/>
<path d="M6330 590 l0 -50 655 0 655 0 0 50 0 50 -655 0 -655 0 0 -50z"/>
<path d="M8810 590 l0 -50 195 0 195 0 0 50 0 50 -195 0 -195 0 0 -50z"/>
<path d="M0 430 l0 -50 280 0 280 0 0 50 0 50 -280 0 -280 0 0 -50z"/>
<path d="M1640 430 l0 -50 655 0 655 0 0 50 0 50 -655 0 -655 0 0 -50z"/>
<path d="M4080 430 l0 -50 495 0 495 0 0 50 0 50 -495 0 -495 0 0 -50z"/>
<path d="M6180 430 l0 -50 655 0 655 0 0 50 0 50 -655 0 -655 0 0 -50z"/>
<path d="M8660 430 l0 -50 270 0 270 0 0 50 0 50 -270 0 -270 0 0 -50z"/>
<path d="M0 265 l0 -55 355 0 355 0 0 55 0 55 -355 0 -355 0 0 -55z"/>
<path d="M1790 265 l0 -55 656 0 655 0 -3 53 -3 52 -652 3 -653 2 0 -55z"/>
<path d="M4240 265 l0 -55 341 0 340 0 -3 53 -3 52 -337 3 -338 2 0 -55z"/>
<path d="M6030 265 l0 -55 655 0 655 0 0 55 0 55 -655 0 -655 0 0 -55z"/>
<path d="M8510 265 l0 -55 345 0 345 0 0 55 0 55 -345 0 -345 0 0 -55z"/>
<path d="M0 100 l0 -50 430 0 430 0 0 50 0 50 -430 0 -430 0 0 -50z"/>
<path d="M1940 100 l0 -50 655 0 655 0 0 50 0 50 -655 0 -655 0 0 -50z"/>
<path d="M4410 100 l0 -50 175 0 175 0 0 50 0 50 -175 0 -175 0 0 -50z"/>
<path d="M5880 100 l0 -50 655 0 655 0 0 50 0 50 -655 0 -655 0 0 -50z"/>
<path d="M8360 100 l0 -50 420 0 420 0 0 50 0 50 -420 0 -420 0 0 -50z"/>
</g>
</svg>
