<?xml version="1.0" standalone="no"?>
<!DOCTYPE svg PUBLIC "-//W3C//DTD SVG 20010904//EN"
 "http://www.w3.org/TR/2001/REC-SVG-20010904/DTD/svg10.dtd">
<svg version="1.0" xmlns="http://www.w3.org/2000/svg"
 width="860.000000pt" height="852.000000pt" viewBox="0 0 860.000000 852.000000" style="background: white"
 preserveAspectRatio="xMidYMid meet">
<metadata>
Created by potrace 1.13, written by Peter Selinger 2001-2015
</metadata>
<g transform="translate(0.000000,852.000000) scale(0.100000,-0.100000)"
fill="#019C68" stroke="none">
<path d="M850 8450 l0 -50 520 0 520 0 0 50 0 50 -520 0 -520 0 0 -50z"/>
<path d="M2791 8450 l-1 -50 520 0 520 0 0 50 0 50 -518 0 -519 0 -2 -50z"/>
<path d="M4720 8450 l0 -50 520 0 520 0 0 50 0 50 -520 0 -520 0 0 -50z"/>
<path d="M6661 8450 l2 -50 517 0 517 0 2 50 1 50 -520 0 -520 0 1 -50z"/>
<path d="M970 8310 l0 -40 520 0 520 0 0 40 0 40 -520 0 -520 0 0 -40z"/>
<path d="M2910 8310 l0 -40 520 0 520 0 0 40 0 40 -520 0 -520 0 0 -40z"/>
<path d="M4600 8310 l0 -40 521 0 520 1 -3 37 -3 37 -517 3 -518 2 0 -40z"/>
<path d="M6540 8310 l0 -40 520 0 520 0 0 40 0 40 -520 0 -520 0 0 -40z"/>
<path d="M0 8180 l0 -40 110 0 110 0 0 39 0 39 -110 1 -110 2 0 -41z"/>
<path d="M1090 8180 l0 -40 520 0 520 0 0 40 0 40 -520 0 -520 0 0 -40z"/>
<path d="M3030 8180 l0 -40 520 0 520 0 0 40 0 40 -520 0 -520 0 0 -40z"/>
<path d="M4480 8180 l0 -40 520 0 520 0 0 40 0 40 -520 0 -520 0 0 -40z"/>
<path d="M6417 8213 c-4 -3 -7 -21 -7 -40 l0 -33 525 0 525 0 0 40 0 40 -518
0 c-285 0 -522 -3 -525 -7z"/>
<path d="M8400 8180 l0 -40 100 0 100 0 0 40 0 40 -100 0 -100 0 0 -40z"/>
<path d="M0 8050 l0 -40 170 0 170 0 0 40 0 40 -170 0 -170 0 0 -40z"/>
<path d="M1210 8050 l0 -40 520 0 520 0 0 40 0 40 -520 0 -520 0 0 -40z"/>
<path d="M3150 8050 l0 -40 520 0 520 0 0 40 0 40 -520 0 -520 0 0 -40z"/>
<path d="M4360 8050 l0 -40 520 0 520 0 0 40 0 40 -520 0 -520 0 0 -40z"/>
<path d="M6303 8083 c-7 -2 -13 -20 -13 -39 l0 -34 520 0 520 0 0 40 0 40
-507 -1 c-280 0 -514 -3 -520 -6z"/>
<path d="M8280 8050 l0 -40 160 0 160 0 0 40 0 40 -160 0 -160 0 0 -40z"/>
<path d="M0 7920 l0 -40 230 0 230 0 0 40 0 40 -230 0 -230 0 0 -40z"/>
<path d="M1330 7920 l0 -40 520 0 520 0 0 40 0 40 -520 0 -520 0 0 -40z"/>
<path d="M3270 7920 l0 -40 1005 0 1005 0 0 40 0 40 -1005 0 -1005 0 0 -40z"/>
<path d="M6170 7920 l0 -40 520 0 520 0 0 40 0 40 -520 0 -520 0 0 -40z"/>
<path d="M8160 7920 l0 -40 220 0 220 0 0 40 0 40 -220 0 -220 0 0 -40z"/>
<path d="M0 7790 l0 -40 290 0 290 0 0 40 0 40 -290 0 -290 0 0 -40z"/>
<path d="M1457 7823 c-4 -3 -7 -21 -7 -40 l0 -33 520 0 520 0 0 40 0 40 -513
0 c-283 0 -517 -3 -520 -7z"/>
<path d="M3397 7823 c-4 -3 -7 -21 -7 -40 l0 -33 885 0 885 0 0 40 0 40 -878
0 c-483 0 -882 -3 -885 -7z"/>
<path d="M6057 7823 c-4 -3 -7 -21 -7 -40 l0 -33 520 0 520 1 0 39 0 40 -513
0 c-283 0 -517 -3 -520 -7z"/>
<path d="M8040 7790 l0 -40 280 0 280 0 0 40 0 40 -280 0 -280 0 0 -40z"/>
<path d="M0 7660 l0 -40 350 0 350 0 0 40 0 40 -350 0 -350 0 0 -40z"/>
<path d="M1570 7660 l0 -40 520 0 520 0 0 40 0 39 -520 1 -520 0 0 -40z"/>
<path d="M3510 7660 l0 -40 760 0 760 0 0 40 0 40 -760 0 -760 0 0 -40z"/>
<path d="M5930 7660 l0 -40 520 0 520 0 -2 40 -1 40 -519 0 -518 0 0 -40z"/>
<path d="M7920 7660 l0 -40 340 0 340 0 0 40 0 40 -340 0 -340 0 0 -40z"/>
<path d="M0 7530 l0 -40 415 0 415 0 0 40 0 40 -415 0 -415 0 0 -40z"/>
<path d="M1690 7530 l0 -40 520 0 520 0 0 40 0 40 -520 0 -520 -1 0 -39z"/>
<path d="M3630 7530 l0 -40 640 0 640 0 0 40 0 40 -640 0 -640 0 0 -40z"/>
<path d="M5810 7530 l0 -40 520 0 520 0 0 40 0 40 -520 0 -520 0 0 -40z"/>
<path d="M7790 7530 l0 -40 405 0 405 0 0 40 0 40 -405 0 -405 -1 0 -39z"/>
<path d="M0 7400 l0 -40 475 0 475 0 0 40 0 40 -475 0 -475 0 0 -40z"/>
<path d="M1810 7400 l0 -40 525 0 525 0 0 40 0 40 -525 0 -525 0 0 -40z"/>
<path d="M3750 7400 l0 -40 520 0 520 0 0 40 0 40 -520 0 -520 0 0 -40z"/>
<path d="M5690 7400 l0 -40 520 0 520 0 0 40 0 40 -520 0 -520 0 0 -40z"/>
<path d="M7672 7400 l2 -40 463 0 463 0 0 40 0 40 -465 0 -466 0 3 -40z"/>
<path d="M32 7270 l0 -39 519 -1 519 0 0 40 0 40 -519 0 -520 0 1 -40z"/>
<path d="M1932 7270 l1 -40 523 0 523 0 -1 40 0 40 -524 0 -524 0 2 -40z"/>
<path d="M3882 7270 l-2 -40 395 0 395 1 0 39 0 40 -393 0 -394 0 -1 -40z"/>
<path d="M5570 7270 l0 -40 520 0 519 0 -2 38 -2 37 -517 3 -518 2 0 -40z"/>
<path d="M7557 7303 c-4 -3 -7 -21 -7 -40 l0 -33 520 0 520 0 0 40 0 40 -513
0 c-283 0 -517 -3 -520 -7z"/>
<path d="M150 7135 l0 -35 520 0 520 0 0 35 0 35 -520 0 -520 0 0 -35z"/>
<path d="M2060 7135 l0 -35 520 0 520 0 0 35 0 35 -520 0 -520 0 0 -35z"/>
<path d="M4020 7135 l0 -35 265 0 265 0 0 35 0 35 -265 0 -265 0 0 -35z"/>
<path d="M5450 7135 l0 -35 520 0 520 0 0 35 0 35 -520 0 -520 0 0 -35z"/>
<path d="M7432 7135 l2 -35 518 0 518 0 0 35 0 35 -520 0 -521 0 3 -35z"/>
<path d="M270 7005 l0 -35 518 0 518 0 2 35 3 35 -521 0 -520 0 0 -35z"/>
<path d="M2180 7005 l0 -35 518 0 519 0 1 35 1 35 -519 0 -520 -1 0 -34z"/>
<path d="M4150 7005 l0 -35 140 0 140 0 0 35 0 35 -140 0 -140 0 0 -35z"/>
<path d="M5330 7005 l0 -35 519 0 519 0 0 35 0 35 -519 0 -519 0 0 -35z"/>
<path d="M7312 7005 l0 -35 519 0 519 0 0 35 0 35 -519 0 -519 0 0 -35z"/>
<path d="M390 6870 l0 -40 520 0 520 1 0 39 0 40 -520 0 -520 0 0 -40z"/>
<path d="M2300 6870 l0 -39 520 -1 520 0 0 40 0 40 -520 0 -520 0 0 -40z"/>
<path d="M5210 6870 l0 -40 521 0 520 0 -3 38 -3 37 -517 3 -518 2 0 -40z"/>
<path d="M7197 6903 c-4 -3 -7 -21 -7 -40 l0 -33 520 0 520 0 0 40 0 40 -513
0 c-283 0 -517 -3 -520 -7z"/>
<path d="M510 6740 l0 -40 520 0 520 0 0 40 0 40 -520 0 -520 0 0 -40z"/>
<path d="M2420 6740 l0 -40 520 0 520 0 0 40 0 40 -520 0 -520 0 0 -40z"/>
<path d="M5090 6740 l0 -40 520 0 520 0 0 40 0 40 -520 0 -520 0 0 -40z"/>
<path d="M7070 6740 l0 -40 520 0 520 0 0 40 0 40 -520 0 -520 0 0 -40z"/>
<path d="M632 6610 l-3 -40 518 2 518 3 3 38 3 37 -518 0 -519 0 -2 -40z"/>
<path d="M2542 6613 l3 -38 518 -2 517 -3 0 40 0 40 -521 0 -520 0 3 -37z"/>
<path d="M4970 6610 l0 -40 520 0 520 0 0 40 0 40 -520 0 -520 0 0 -40z"/>
<path d="M6952 6610 l-3 -40 521 0 520 0 0 40 0 40 -518 0 -518 0 -2 -40z"/>
<path d="M750 6480 l0 -40 520 0 520 0 0 40 0 40 -520 0 -520 0 0 -40z"/>
<path d="M2660 6480 l0 -40 520 0 520 0 0 40 0 40 -520 0 -520 0 0 -40z"/>
<path d="M4850 6480 l0 -40 520 0 520 0 0 40 0 40 -520 0 -520 0 0 -40z"/>
<path d="M6830 6480 l0 -40 520 0 520 0 0 40 0 40 -520 0 -520 0 0 -40z"/>
<path d="M872 6350 l2 -40 518 0 518 0 0 40 0 40 -520 0 -521 0 3 -40z"/>
<path d="M2780 6350 l0 -40 520 0 520 0 0 40 0 40 -520 0 -520 0 0 -40z"/>
<path d="M4720 6350 l0 -40 525 0 525 0 0 40 0 40 -525 0 -525 0 0 -40z"/>
<path d="M6710 6350 l0 -40 520 0 520 0 0 40 0 40 -520 0 -520 0 0 -40z"/>
<path d="M750 6220 l0 -40 520 0 520 0 0 40 0 40 -520 0 -520 0 0 -40z"/>
<path d="M2660 6220 l0 -39 520 -1 520 0 0 40 0 40 -520 0 -520 0 0 -40z"/>
<path d="M4850 6220 l0 -40 520 0 520 0 0 40 0 40 -520 0 -520 0 0 -40z"/>
<path d="M6830 6220 l0 -40 520 0 520 0 0 40 0 40 -520 0 -520 0 0 -40z"/>
<path d="M630 6090 l0 -40 520 0 520 0 0 40 0 40 -520 0 -520 0 0 -40z"/>
<path d="M2540 6090 l0 -40 518 2 517 3 3 38 3 37 -520 0 -521 0 0 -40z"/>
<path d="M4970 6090 l0 -40 518 0 519 0 1 40 2 40 -520 0 -520 0 0 -40z"/>
<path d="M6950 6090 l0 -40 520 0 520 0 0 40 0 40 -520 0 -520 0 0 -40z"/>
<path d="M510 5960 l0 -40 521 0 520 0 -3 38 -3 37 -517 3 -518 2 0 -40z"/>
<path d="M2422 5960 l-2 -40 520 0 520 0 0 40 0 40 -518 0 -519 0 -1 -40z"/>
<path d="M5090 5960 l0 -40 520 0 520 0 0 40 0 40 -520 0 -520 0 0 -40z"/>
<path d="M7070 5960 l0 -40 520 0 520 0 0 40 0 40 -520 0 -520 0 0 -40z"/>
<path d="M390 5830 l0 -40 520 0 520 0 0 40 0 40 -520 0 -520 0 0 -40z"/>
<path d="M2300 5830 l0 -40 520 0 520 0 0 40 0 40 -520 0 -520 0 0 -40z"/>
<path d="M5210 5830 l0 -40 520 0 520 0 0 40 0 40 -520 0 -520 0 0 -40z"/>
<path d="M7190 5830 l0 -39 520 -1 520 0 0 40 0 40 -520 0 -520 0 0 -40z"/>
<path d="M270 5700 l0 -40 518 2 517 3 3 38 3 37 -520 0 -521 0 0 -40z"/>
<path d="M2182 5700 l-1 -40 520 0 519 0 0 40 0 40 -519 0 -519 0 0 -40z"/>
<path d="M4150 5700 l0 -40 140 0 140 0 0 40 0 40 -140 0 -140 0 0 -40z"/>
<path d="M5330 5700 l0 -40 520 0 520 0 0 40 0 40 -520 0 -520 0 0 -40z"/>
<path d="M7310 5700 l0 -40 520 0 520 0 0 40 0 40 -520 0 -520 0 0 -40z"/>
<path d="M152 5570 l-3 -40 521 0 521 1 -3 37 -3 37 -516 3 -515 2 -2 -40z"/>
<path d="M2060 5570 l0 -40 520 0 520 0 0 40 0 40 -520 0 -520 0 0 -40z"/>
<path d="M4020 5570 l0 -41 265 1 265 1 0 40 0 39 -265 0 -265 0 0 -40z"/>
<path d="M5450 5570 l0 -40 520 0 520 0 0 40 0 40 -520 0 -520 0 0 -40z"/>
<path d="M7432 5570 l1 -40 519 0 518 0 0 40 0 40 -520 0 -520 0 2 -40z"/>
<path d="M30 5440 l0 -40 520 0 520 0 0 40 0 40 -520 0 -520 0 0 -40z"/>
<path d="M1930 5440 l0 -40 525 0 525 0 0 40 0 40 -525 0 -525 0 0 -40z"/>
<path d="M3880 5440 l0 -40 395 0 395 0 0 40 0 40 -395 0 -395 0 0 -40z"/>
<path d="M5570 5440 l0 -40 520 0 520 0 0 40 0 40 -520 0 -520 0 0 -40z"/>
<path d="M7550 5440 l0 -40 520 0 520 0 0 40 0 40 -520 0 -520 0 0 -40z"/>
<path d="M0 5310 l0 -40 475 0 475 0 0 40 0 39 -475 1 -475 0 0 -40z"/>
<path d="M1817 5343 c-4 -3 -7 -21 -7 -40 l0 -33 525 0 525 0 0 40 0 40 -518
0 c-285 0 -522 -3 -525 -7z"/>
<path d="M3750 5310 l0 -40 520 0 520 0 0 40 0 40 -520 0 -520 0 0 -40z"/>
<path d="M5697 5343 c-4 -3 -7 -21 -7 -40 l0 -33 518 0 519 0 1 40 2 40 -513
0 c-283 0 -517 -3 -520 -7z"/>
<path d="M7672 5310 l-2 -40 465 0 465 0 0 40 0 40 -463 0 -464 0 -1 -40z"/>
<path d="M0 5180 l0 -40 415 0 415 0 -3 38 -2 37 -413 3 -412 2 0 -40z"/>
<path d="M1692 5180 l-1 -40 520 0 519 0 0 40 0 40 -519 0 -519 0 0 -40z"/>
<path d="M3630 5180 l0 -40 640 0 640 0 0 40 0 40 -640 0 -640 0 0 -40z"/>
<path d="M5817 5213 c-4 -3 -7 -21 -7 -40 l0 -33 520 0 520 0 0 40 0 40 -513
0 c-283 0 -517 -3 -520 -7z"/>
<path d="M7790 5180 l0 -40 405 0 405 0 0 40 0 40 -405 0 -405 0 0 -40z"/>
<path d="M0 5050 l0 -40 350 0 350 0 0 40 0 40 -350 0 -350 0 0 -40z"/>
<path d="M1572 5053 l3 -38 518 -3 517 -2 0 40 0 40 -521 0 -520 0 3 -37z"/>
<path d="M3510 5050 l0 -40 760 0 760 0 0 40 0 40 -760 0 -760 0 0 -40z"/>
<path d="M5930 5050 l0 -40 520 0 520 0 0 40 0 40 -520 0 -520 0 0 -40z"/>
<path d="M7920 5050 l0 -40 340 0 340 0 0 40 0 40 -340 0 -340 0 0 -40z"/>
<path d="M0 4920 l0 -40 290 0 290 0 0 40 0 40 -290 0 -290 0 0 -40z"/>
<path d="M1452 4920 l-1 -40 520 0 519 0 0 40 0 40 -519 0 -519 0 0 -40z"/>
<path d="M3390 4920 l0 -40 886 0 885 0 -3 38 -3 37 -882 3 -883 2 0 -40z"/>
<path d="M6052 4923 l3 -38 518 -3 517 -2 0 40 0 40 -521 0 -520 0 3 -37z"/>
<path d="M8040 4920 l0 -40 280 0 280 0 0 40 0 40 -280 0 -280 0 0 -40z"/>
<path d="M0 4790 l0 -40 230 0 230 0 0 40 0 40 -230 0 -230 0 0 -40z"/>
<path d="M1330 4790 l0 -40 520 0 519 0 -2 38 -2 37 -517 3 -518 2 0 -40z"/>
<path d="M3272 4790 l-3 -40 1006 0 1005 0 0 40 0 40 -1003 0 -1003 0 -2 -40z"/>
<path d="M6172 4791 l1 -40 519 -1 518 -1 0 41 0 40 -520 0 -520 0 2 -39z"/>
<path d="M8160 4790 l0 -40 220 0 220 0 0 40 0 40 -220 0 -220 0 0 -40z"/>
<path d="M0 4660 l0 -40 170 0 170 0 0 40 0 40 -170 0 -170 0 0 -40z"/>
<path d="M1210 4660 l0 -40 520 0 520 0 0 40 0 40 -520 0 -520 -1 0 -39z"/>
<path d="M3150 4660 l0 -40 520 0 520 0 0 40 0 40 -520 0 -520 0 0 -40z"/>
<path d="M4360 4660 l0 -40 520 0 520 0 0 40 0 40 -520 0 -520 0 0 -40z"/>
<path d="M6297 4693 c-4 -3 -7 -21 -7 -40 l0 -33 520 0 520 0 0 40 0 39 -513
1 c-282 0 -516 -3 -520 -7z"/>
<path d="M8280 4660 l0 -40 160 0 160 0 0 40 0 40 -160 0 -160 0 0 -40z"/>
<path d="M0 4530 l0 -40 110 0 110 0 0 40 0 40 -110 0 -110 0 0 -40z"/>
<path d="M1095 4561 c-3 -6 -4 -24 -3 -40 l2 -31 518 0 518 0 0 40 0 40 -514
0 c-310 0 -517 -4 -521 -9z"/>
<path d="M3030 4530 l0 -40 520 0 520 0 0 40 0 40 -520 0 -520 0 0 -40z"/>
<path d="M4480 4530 l0 -40 520 0 520 0 0 40 0 40 -520 0 -520 0 0 -40z"/>
<path d="M6410 4530 l0 -40 523 0 524 0 1 40 2 40 -525 0 -525 0 0 -40z"/>
<path d="M8400 4530 l0 -40 100 0 100 0 0 40 0 40 -100 0 -100 0 0 -40z"/>
<path d="M970 4400 l0 -40 520 0 520 0 0 40 0 40 -520 0 -520 0 0 -40z"/>
<path d="M2910 4400 l0 -40 520 0 520 0 0 40 0 40 -520 0 -520 0 0 -40z"/>
<path d="M4600 4400 l0 -40 520 0 520 0 0 40 0 40 -520 0 -520 0 0 -40z"/>
<path d="M6540 4400 l0 -40 520 0 520 0 0 40 0 40 -520 0 -520 0 0 -40z"/>
<path d="M850 4270 l0 -40 521 0 520 0 -3 38 -3 37 -517 2 -518 2 0 -39z"/>
<path d="M2790 4270 l0 -40 521 0 520 0 -3 38 -3 37 -517 3 -518 2 0 -40z"/>
<path d="M4720 4270 l0 -40 520 0 520 0 0 40 0 40 -520 0 -520 0 0 -40z"/>
<path d="M6660 4270 l0 -40 520 0 520 0 0 40 0 40 -520 0 -520 0 0 -40z"/>
<path d="M977 4173 c-4 -3 -7 -21 -7 -39 l0 -33 519 -1 520 0 -1 40 0 40 -513
0 c-281 0 -515 -3 -518 -7z"/>
<path d="M2910 4140 l0 -39 520 -1 520 0 0 40 0 40 -520 0 -520 -1 0 -39z"/>
<path d="M4602 4140 l-2 -40 520 0 520 0 0 40 0 40 -518 0 -519 0 -1 -40z"/>
<path d="M6540 4140 l0 -40 520 0 520 1 0 39 0 40 -520 0 -520 0 0 -40z"/>
<path d="M0 4010 l0 -40 110 0 110 0 0 39 0 39 -110 1 -110 2 0 -41z"/>
<path d="M1090 4010 l0 -40 520 0 520 0 0 40 0 40 -520 0 -520 0 0 -40z"/>
<path d="M3030 4010 l0 -40 520 0 520 0 0 40 0 40 -520 0 -520 0 0 -40z"/>
<path d="M4480 4010 l0 -40 520 0 520 0 0 40 0 40 -520 0 -520 0 0 -40z"/>
<path d="M6410 4009 l0 -39 525 0 525 0 0 40 0 41 -525 -1 -525 -1 0 -40z"/>
<path d="M8400 4010 l0 -40 100 0 100 0 0 40 0 40 -100 0 -100 0 0 -40z"/>
<path d="M0 3875 l0 -35 170 0 170 0 0 35 0 35 -170 0 -170 0 0 -35z"/>
<path d="M1210 3875 l0 -35 520 0 520 0 0 35 0 35 -520 0 -520 0 0 -35z"/>
<path d="M3150 3875 l0 -35 520 0 521 0 -3 35 -2 35 -518 0 -518 0 0 -35z"/>
<path d="M4360 3875 l0 -35 520 0 520 0 0 35 0 35 -520 0 -520 0 0 -35z"/>
<path d="M6290 3875 l0 -35 520 0 520 0 0 35 0 35 -520 0 -520 0 0 -35z"/>
<path d="M8280 3875 l0 -35 160 0 160 0 0 35 0 35 -160 0 -160 0 0 -35z"/>
<path d="M0 3740 l0 -40 230 0 230 0 0 39 0 40 -230 1 -230 1 0 -41z"/>
<path d="M1330 3740 l0 -40 518 2 517 3 3 38 3 37 -520 0 -521 0 0 -40z"/>
<path d="M3270 3740 l0 -40 1005 0 1005 0 0 40 0 40 -1005 0 -1005 0 0 -40z"/>
<path d="M6172 3743 l3 -38 518 -3 517 -2 0 40 0 40 -521 0 -520 0 3 -37z"/>
<path d="M8160 3740 l0 -40 220 0 220 0 0 40 0 40 -220 0 -220 0 0 -40z"/>
<path d="M0 3610 l0 -40 290 0 290 0 0 40 0 40 -290 0 -290 0 0 -40z"/>
<path d="M1450 3610 l0 -40 520 0 520 0 0 40 0 40 -520 0 -520 -1 0 -39z"/>
<path d="M3390 3610 l0 -40 883 0 884 0 1 40 2 40 -885 0 -885 0 0 -40z"/>
<path d="M6050 3610 l0 -40 519 0 520 0 -1 40 0 40 -519 0 -519 0 0 -40z"/>
<path d="M8040 3610 l0 -40 280 0 280 0 0 40 0 40 -280 0 -280 0 0 -40z"/>
<path d="M0 3480 l0 -40 350 0 350 0 0 40 0 39 -350 1 -350 0 0 -40z"/>
<path d="M1570 3480 l0 -40 520 0 520 0 0 40 0 40 -520 0 -520 0 0 -40z"/>
<path d="M3510 3480 l0 -40 760 0 760 0 0 40 0 40 -760 0 -760 0 0 -40z"/>
<path d="M5930 3480 l0 -40 520 0 520 0 0 40 0 40 -520 0 -520 0 0 -40z"/>
<path d="M7920 3480 l0 -40 340 0 340 0 0 40 0 40 -340 0 -340 0 0 -40z"/>
<path d="M0 3350 l0 -40 415 0 415 0 0 40 0 40 -415 0 -415 0 0 -40z"/>
<path d="M1690 3351 l0 -40 520 -1 520 -1 0 41 0 40 -520 0 -520 0 0 -39z"/>
<path d="M3630 3350 l0 -40 640 0 640 0 0 40 0 40 -640 0 -640 0 0 -40z"/>
<path d="M5810 3350 l0 -40 520 0 520 0 0 40 0 40 -520 0 -520 0 0 -40z"/>
<path d="M7790 3350 l0 -40 405 0 405 0 0 40 0 40 -405 0 -405 0 0 -40z"/>
<path d="M0 3220 l0 -40 473 0 474 0 1 40 2 40 -475 0 -475 0 0 -40z"/>
<path d="M1810 3220 l0 -40 525 0 525 0 0 40 0 40 -525 0 -525 0 0 -40z"/>
<path d="M3750 3220 l0 -40 520 0 520 0 0 40 0 40 -520 0 -520 0 0 -40z"/>
<path d="M5690 3220 l0 -40 519 0 519 0 0 40 1 40 -520 0 -519 -1 0 -39z"/>
<path d="M7670 3220 l0 -40 465 0 465 0 0 40 0 40 -465 0 -465 0 0 -40z"/>
<path d="M30 3090 l0 -40 520 0 520 0 0 40 0 40 -520 0 -520 0 0 -40z"/>
<path d="M1932 3093 l3 -38 520 0 520 0 3 38 3 37 -526 0 -526 0 3 -37z"/>
<path d="M3887 3123 c-4 -3 -7 -21 -7 -40 l0 -33 395 0 395 0 0 40 0 40 -388
0 c-214 0 -392 -3 -395 -7z"/>
<path d="M5570 3090 l0 -40 518 2 517 3 3 38 3 37 -520 0 -521 0 0 -40z"/>
<path d="M7550 3090 l0 -39 521 -1 520 0 -3 37 -3 38 -517 3 -518 2 0 -40z"/>
<path d="M150 2960 l0 -40 520 0 520 0 0 40 0 40 -520 0 -520 0 0 -40z"/>
<path d="M2060 2960 l0 -40 520 0 520 0 0 40 0 40 -520 0 -520 0 0 -40z"/>
<path d="M4020 2960 l0 -40 265 0 265 0 0 40 0 40 -265 0 -265 0 0 -40z"/>
<path d="M5450 2960 l0 -40 520 0 520 0 0 40 0 40 -520 0 -520 0 0 -40z"/>
<path d="M7430 2960 l0 -40 520 0 520 0 0 40 0 40 -520 0 -520 0 0 -40z"/>
<path d="M270 2830 l0 -40 520 0 520 0 0 40 0 40 -520 0 -520 0 0 -40z"/>
<path d="M2180 2830 l0 -40 520 0 520 0 0 40 0 40 -520 0 -520 0 0 -40z"/>
<path d="M4152 2830 l2 -40 138 0 138 0 0 40 0 40 -140 0 -141 0 3 -40z"/>
<path d="M5330 2830 l0 -40 520 0 520 0 0 40 0 40 -520 0 -520 0 0 -40z"/>
<path d="M7310 2830 l0 -40 520 0 520 0 0 40 0 40 -520 0 -520 0 0 -40z"/>
<path d="M390 2700 l0 -40 520 0 520 0 0 40 0 40 -520 0 -520 0 0 -40z"/>
<path d="M2300 2700 l0 -40 520 0 520 0 0 40 0 40 -520 0 -520 0 0 -40z"/>
<path d="M5210 2700 l0 -40 520 0 520 0 0 40 0 40 -520 0 -520 0 0 -40z"/>
<path d="M7190 2700 l0 -40 520 0 520 0 0 40 0 40 -520 0 -520 0 0 -40z"/>
<path d="M510 2570 l0 -40 520 0 520 0 0 40 0 40 -520 0 -520 0 0 -40z"/>
<path d="M2420 2570 l0 -40 518 2 517 3 3 38 3 37 -520 0 -521 0 0 -40z"/>
<path d="M5090 2570 l0 -40 520 0 520 0 0 40 0 40 -520 0 -520 0 0 -40z"/>
<path d="M7070 2570 l0 -40 520 0 520 0 0 40 0 40 -520 0 -520 0 0 -40z"/>
<path d="M630 2440 l0 -40 521 0 520 0 -3 38 -3 37 -517 3 -518 2 0 -40z"/>
<path d="M2540 2440 l0 -40 521 0 520 0 -3 38 -3 37 -517 3 -518 2 0 -40z"/>
<path d="M4970 2440 l0 -40 520 0 520 0 0 40 0 40 -520 0 -520 0 0 -40z"/>
<path d="M6950 2440 l0 -40 521 0 520 0 -3 38 -3 37 -517 3 -518 2 0 -40z"/>
<path d="M750 2310 l0 -39 520 -1 520 0 0 40 0 40 -520 0 -520 0 0 -40z"/>
<path d="M2660 2310 l0 -40 521 0 520 0 -3 38 -3 37 -517 3 -518 2 0 -40z"/>
<path d="M4850 2310 l0 -40 520 0 520 0 0 40 0 39 -520 1 -520 0 0 -40z"/>
<path d="M6830 2310 l0 -40 520 0 520 0 0 40 0 40 -520 0 -520 0 0 -40z"/>
<path d="M870 2180 l0 -40 520 0 520 0 0 40 0 40 -520 0 -520 0 0 -40z"/>
<path d="M2780 2180 l0 -40 520 0 520 0 0 40 0 39 -520 1 -520 0 0 -40z"/>
<path d="M4720 2180 l0 -40 525 0 525 0 0 40 0 40 -525 0 -525 0 0 -40z"/>
<path d="M6710 2180 l0 -40 520 0 520 0 0 40 0 40 -520 0 -520 0 0 -40z"/>
<path d="M750 2050 l0 -40 520 0 520 0 0 40 0 40 -520 0 -520 0 0 -40z"/>
<path d="M2660 2050 l0 -40 520 0 520 0 0 40 0 40 -520 0 -520 0 0 -40z"/>
<path d="M4850 2050 l0 -40 520 0 520 0 0 40 0 40 -520 0 -520 0 0 -40z"/>
<path d="M6830 2050 l0 -40 520 0 520 0 0 40 0 40 -520 0 -520 0 0 -40z"/>
<path d="M630 1920 l0 -40 520 0 520 0 0 40 0 40 -520 0 -520 0 0 -40z"/>
<path d="M2540 1920 l0 -40 520 0 520 0 0 40 0 40 -520 0 -520 0 0 -40z"/>
<path d="M4970 1920 l0 -40 520 0 520 0 0 40 0 40 -520 0 -520 0 0 -40z"/>
<path d="M6950 1920 l0 -40 520 0 520 0 0 40 0 40 -520 0 -520 0 0 -40z"/>
<path d="M510 1790 l0 -40 521 0 520 0 -3 38 -3 37 -517 3 -518 2 0 -40z"/>
<path d="M2420 1790 l0 -40 521 0 520 0 -3 38 -3 37 -517 3 -518 2 0 -40z"/>
<path d="M5090 1790 l0 -40 521 0 520 0 -3 38 -3 37 -517 3 -518 2 0 -40z"/>
<path d="M7077 1823 c-4 -3 -7 -21 -7 -40 l0 -33 520 0 520 0 0 40 0 40 -513
0 c-283 0 -517 -3 -520 -7z"/>
<path d="M390 1660 l0 -40 520 0 520 1 0 39 0 40 -520 0 -520 0 0 -40z"/>
<path d="M2300 1660 l0 -40 520 0 520 0 0 40 0 40 -520 0 -520 0 0 -40z"/>
<path d="M5210 1660 l0 -39 520 -1 520 0 0 40 0 40 -520 0 -520 0 0 -40z"/>
<path d="M7190 1660 l0 -40 520 0 520 0 0 40 0 40 -520 0 -520 0 0 -40z"/>
<path d="M270 1530 l0 -40 520 0 520 0 0 40 0 40 -520 0 -520 0 0 -40z"/>
<path d="M2180 1530 l0 -40 518 2 517 3 3 38 3 37 -520 0 -521 -1 0 -39z"/>
<path d="M4150 1530 l0 -40 140 0 140 0 0 40 0 40 -140 0 -140 0 0 -40z"/>
<path d="M5330 1530 l0 -40 520 0 520 0 0 40 0 40 -520 0 -520 0 0 -40z"/>
<path d="M7310 1530 l0 -40 520 0 520 0 0 40 0 40 -520 0 -520 0 0 -40z"/>
<path d="M150 1400 l0 -40 519 0 519 0 0 40 1 40 -520 0 -519 0 0 -40z"/>
<path d="M2060 1400 l0 -40 520 0 520 0 0 40 0 40 -520 0 -520 0 0 -40z"/>
<path d="M4020 1400 l0 -40 263 2 262 3 3 38 3 37 -265 0 -266 0 0 -40z"/>
<path d="M5452 1403 l3 -38 518 -3 517 -2 0 40 0 40 -521 0 -520 0 3 -37z"/>
<path d="M7430 1400 l0 -40 520 0 520 0 0 40 0 40 -520 0 -520 0 0 -40z"/>
<path d="M32 1270 l0 -40 519 0 519 0 0 40 0 40 -519 0 -520 0 1 -40z"/>
<path d="M1932 1270 l1 -40 523 0 523 0 -1 40 0 40 -524 0 -524 0 2 -40z"/>
<path d="M3882 1270 l-2 -40 395 0 395 0 0 40 0 40 -393 0 -394 0 -1 -40z"/>
<path d="M5570 1270 l0 -40 520 0 519 0 -2 38 -2 37 -517 3 -518 2 0 -40z"/>
<path d="M7557 1303 c-4 -3 -7 -21 -7 -40 l0 -33 520 0 520 0 0 40 0 40 -513
0 c-283 0 -517 -3 -520 -7z"/>
<path d="M0 1140 l0 -40 476 0 475 0 -3 38 -3 37 -472 3 -473 3 0 -41z"/>
<path d="M1817 1173 c-4 -3 -7 -21 -7 -40 l0 -33 525 0 525 0 0 40 0 40 -518
0 c-285 0 -522 -3 -525 -7z"/>
<path d="M3750 1140 l0 -40 520 0 520 0 0 40 0 40 -520 0 -520 0 0 -40z"/>
<path d="M5690 1140 l0 -40 520 0 520 0 0 40 0 40 -520 0 -520 0 0 -40z"/>
<path d="M7672 1140 l2 -40 463 0 463 0 0 40 0 40 -465 0 -466 0 3 -40z"/>
<path d="M0 1010 l0 -40 416 0 415 0 -3 38 -3 37 -412 3 -413 2 0 -40z"/>
<path d="M1690 1010 l0 -40 520 0 520 0 0 40 0 40 -520 0 -520 0 0 -40z"/>
<path d="M3630 1010 l0 -40 640 0 640 0 0 40 0 39 -640 1 -640 0 0 -40z"/>
<path d="M5815 1041 c-3 -6 -4 -24 -3 -40 l2 -31 518 0 518 0 0 40 0 40 -514
0 c-310 0 -517 -4 -521 -9z"/>
<path d="M7790 1010 l0 -40 405 0 405 0 0 40 0 40 -405 0 -405 0 0 -40z"/>
<path d="M0 880 l0 -40 350 0 350 0 0 40 0 40 -350 0 -350 0 0 -40z"/>
<path d="M1570 880 l0 -40 520 0 520 0 0 40 0 40 -520 0 -520 0 0 -40z"/>
<path d="M3510 880 l0 -40 760 0 760 0 0 40 0 40 -760 0 -760 0 0 -40z"/>
<path d="M5930 880 l0 -40 520 0 520 0 0 40 0 40 -520 0 -520 0 0 -40z"/>
<path d="M7920 880 l0 -40 340 0 340 0 0 40 0 40 -340 0 -340 0 0 -40z"/>
<path d="M0 745 l0 -35 290 0 290 0 0 35 0 35 -290 0 -290 0 0 -35z"/>
<path d="M1450 745 l0 -35 520 0 520 0 0 35 0 35 -520 0 -520 0 0 -35z"/>
<path d="M3390 745 l0 -35 885 0 885 0 0 35 0 35 -885 0 -885 0 0 -35z"/>
<path d="M6050 745 l0 -35 520 0 520 1 0 34 0 35 -520 0 -520 0 0 -35z"/>
<path d="M8040 745 l0 -35 280 0 280 0 0 35 0 35 -280 0 -280 0 0 -35z"/>
<path d="M0 615 l0 -35 230 0 230 0 0 35 0 35 -230 0 -230 0 0 -35z"/>
<path d="M1330 615 l0 -35 520 0 520 0 0 35 0 35 -520 0 -520 0 0 -35z"/>
<path d="M3272 615 l-3 -35 1006 0 1005 0 0 35 0 35 -1003 0 -1003 0 -2 -35z"/>
<path d="M6170 615 l0 -35 520 0 520 0 0 35 0 35 -520 0 -520 -1 0 -34z"/>
<path d="M8160 615 l0 -35 220 0 220 0 0 35 0 35 -220 0 -220 0 0 -35z"/>
<path d="M0 480 l0 -40 170 0 170 0 0 40 0 40 -170 0 -170 0 0 -40z"/>
<path d="M1210 480 l0 -40 520 0 520 0 0 40 0 40 -520 0 -520 0 0 -40z"/>
<path d="M3150 480 l0 -40 520 0 520 0 0 40 0 40 -520 0 -520 0 0 -40z"/>
<path d="M4360 480 l0 -40 520 0 520 0 0 40 0 40 -520 0 -520 0 0 -40z"/>
<path d="M6290 480 l0 -40 520 0 520 0 0 40 0 40 -520 0 -520 0 0 -40z"/>
<path d="M8280 480 l0 -40 160 0 160 0 0 40 0 40 -160 0 -160 0 0 -40z"/>
<path d="M0 350 l0 -40 110 0 110 0 0 40 0 40 -110 0 -110 0 0 -40z"/>
<path d="M1094 353 l1 -38 518 -3 517 -2 0 40 0 40 -519 0 -518 0 1 -37z"/>
<path d="M3030 350 l0 -40 520 0 520 0 0 40 0 40 -520 0 -520 0 0 -40z"/>
<path d="M4480 350 l0 -40 520 0 520 0 0 40 0 40 -520 0 -520 0 0 -40z"/>
<path d="M6410 350 l0 -40 525 0 525 0 -2 40 -1 40 -524 0 -523 0 0 -40z"/>
<path d="M8400 350 l0 -40 100 0 100 0 0 40 0 40 -100 0 -100 0 0 -40z"/>
<path d="M970 220 l0 -40 520 0 520 0 0 40 0 40 -520 0 -520 0 0 -40z"/>
<path d="M2910 220 l0 -39 520 -1 520 0 0 40 0 40 -520 0 -520 0 0 -40z"/>
<path d="M4600 220 l0 -40 520 0 520 0 0 40 0 40 -520 0 -520 0 0 -40z"/>
<path d="M6540 220 l0 -40 520 0 520 0 0 40 0 40 -520 0 -520 0 0 -40z"/>
<path d="M850 90 l0 -40 520 0 520 0 0 40 0 40 -520 0 -520 0 0 -40z"/>
<path d="M2790 90 l0 -40 520 0 520 0 0 40 0 40 -520 0 -520 0 0 -40z"/>
<path d="M4720 90 l0 -40 520 0 520 0 0 40 0 40 -520 0 -520 0 0 -40z"/>
<path d="M6660 90 l0 -40 519 0 519 0 0 40 1 40 -520 0 -519 0 0 -40z"/>
</g>
</svg>
